<svg xmlns="http://www.w3.org/2000/svg" width="503.171" height="144.351" viewBox="0 0 503.171 144.351">
  <g id="Groupe_655" data-name="Groupe 655" transform="translate(-169.297 -305.54)" fill="#fff">
    <path id="Tracé_376" data-name="Tracé 376" d="M249.982,437.656c-8.717,6.968-19.867,9.217-35.272,9.217H169.3V305.54h37.711c13.174,0,24.527,1.025,33.244,6.758,8.514,5.533,15,13.931,15,28.677,0,14.956-9.528,27.247-21.282,30.931v.41c18.853,3.894,31.013,15.77,31.013,34.415C264.981,421.476,258.7,430.693,249.982,437.656ZM226.261,325.2c-5.066-2.869-10.132-3.894-19.254-3.894H188.961v44.862h16.424c9.731,0,16.216-.82,20.876-4.3s9.33-8.4,9.33-18.639C235.591,333.192,231.129,327.868,226.261,325.2Zm8.316,61.247c-6.9-4.713-15.613-5.123-24.532-5.123H188.961v49.365h21.084c8.919,0,17.636-.205,24.532-4.918s10.136-10.857,10.136-19.865S241.468,391.16,234.577,386.451Z" transform="translate(0 0)"/>
    <path id="Tracé_377" data-name="Tracé 377" d="M291.9,399.331c-2.84,2.869-12.773,14.75-38.517,14.75-25.952,0-48.654-19.664-48.654-50.8,0-31.336,23.716-50.591,49.262-50.591,25.744,0,36.286,12.7,37.3,13.926L284.4,340.958c-3.245-3.279-11.759-11.881-28.791-11.881S224.4,342.188,224.4,362.667s12.768,34.62,31.423,34.62a39.881,39.881,0,0,0,29.192-12.292Z" transform="translate(173.665 35.047)"/>
    <path id="Tracé_378" data-name="Tracé 378" d="M308.016,399.331c-2.839,2.869-12.773,14.75-38.517,14.75-25.952,0-48.654-19.664-48.654-50.8,0-31.336,23.721-50.591,49.262-50.591,25.744,0,36.286,12.7,37.3,13.926l-6.891,14.341c-3.245-3.279-11.759-11.881-28.787-11.881s-31.22,13.111-31.22,33.59,12.768,34.62,31.423,34.62a39.881,39.881,0,0,0,29.192-12.292Z" transform="translate(252.641 35.047)"/>
    <path id="Tracé_379" data-name="Tracé 379" d="M288.368,414.081c-28.787,0-51.083-20.279-51.083-50.595,0-30.111,22.3-50.8,51.083-50.8,28.583,0,50.884,20.685,50.884,50.8C339.253,393.8,316.952,414.081,288.368,414.081Zm0-85.415c-19.462,0-31.419,15.156-31.419,34.2,0,19.26,11.957,34.415,31.419,34.415,19.258,0,31.22-15.156,31.22-34.415C319.589,343.822,307.627,328.666,288.368,328.666Z" transform="translate(333.215 35.047)"/>
    <path id="Tracé_380" data-name="Tracé 380" d="M187.714,313.612h17.5v53.521c0,16.41,8.75,27.09,25.362,27.09,16.466,0,25.216-10.68,25.216-27.09V313.612h17.5V367.6c0,25.7-14.089,42.731-42.72,42.731-28.777,0-42.866-17.186-42.866-42.574Z" transform="translate(90.266 39.563)"/>
    <path id="Tracé_381" data-name="Tracé 381" d="M201.279,328.241a10.5,10.5,0,0,1-10.745-10.857c0-6.758,4.868-11.062,10.745-11.062s10.542,4.3,10.542,11.062C211.821,323.937,207.161,328.241,201.279,328.241Zm30.815,0a10.45,10.45,0,0,1-10.542-10.857c0-6.758,4.868-11.062,10.542-11.062,5.877,0,10.745,4.3,10.745,11.062A10.5,10.5,0,0,1,232.094,328.241Z" transform="translate(104.087 3.836)"/>
  </g>
</svg>
